<svg width="18" height="16" viewBox="0 0 18 16" fill="none" xmlns="http://www.w3.org/2000/svg">
<path d="M15.2501 8.47666L9.00009 14.6667L2.75009 8.47666C2.33784 8.07551 2.01312 7.59334 1.79638 7.06052C1.57963 6.52771 1.47556 5.95579 1.4907 5.38077C1.50585 4.80576 1.63989 4.24011 1.88439 3.71944C2.12888 3.19878 2.47853 2.73437 2.91133 2.35548C3.34412 1.97658 3.85068 1.6914 4.3991 1.5179C4.94752 1.34439 5.52593 1.28631 6.09789 1.34733C6.66986 1.40834 7.223 1.58713 7.72248 1.87242C8.22196 2.15771 8.65696 2.54333 9.00009 3.00499C9.3447 2.54668 9.7802 2.16443 10.2793 1.88217C10.7785 1.5999 11.3305 1.4237 11.9009 1.36459C12.4712 1.30549 13.0477 1.36474 13.5941 1.53865C14.1405 1.71257 14.6451 1.99739 15.0764 2.3753C15.5077 2.75321 15.8563 3.21606 16.1004 3.7349C16.3446 4.25374 16.479 4.8174 16.4953 5.39058C16.5117 5.96377 16.4095 6.53416 16.1952 7.06604C15.9809 7.59792 15.6592 8.07985 15.2501 8.48166" stroke="#3A3A3A" stroke-width="1.5" stroke-linecap="round" stroke-linejoin="round"/>
</svg>
